<svg xmlns="http://www.w3.org/2000/svg" viewBox="0 0 114.92 33.96"><defs><style>.cls-1{isolation:isolate;}.cls-2{fill:#fff;}</style></defs><g id="图层_2" data-name="图层 2"><g id="图层_1-2" data-name="图层 1"><g id="Enroll" class="cls-1"><g class="cls-1"><path class="cls-2" d="M17.16,9.68H7.84v5h8.8v6.64H7.84v5.2h9.32V33.2H0V3H17.16Z"/><path class="cls-2" d="M22.12,12.68h7.24v2.6a7.94,7.94,0,0,1,3-2.42,9.44,9.44,0,0,1,3.56-.62,8.85,8.85,0,0,1,3.7.7,7.43,7.43,0,0,1,2.62,2,5.61,5.61,0,0,1,1.2,2.32,12.25,12.25,0,0,1,.32,2.92v13H36.52V22.84a11,11,0,0,0-.22-2.46,3.07,3.07,0,0,0-.78-1.5,2.71,2.71,0,0,0-1.08-.68,4.13,4.13,0,0,0-1.28-.2,3.58,3.58,0,0,0-2.82,1.1,4.58,4.58,0,0,0-1,3.14v11H22.12Z"/><path class="cls-2" d="M48.68,12.68h7.24V16a8.23,8.23,0,0,1,2.84-2.82,7.68,7.68,0,0,1,3.92-1h.62a4.69,4.69,0,0,1,.78.08v6.92A6.88,6.88,0,0,0,61,18.52,4.66,4.66,0,0,0,57.18,20a6.65,6.65,0,0,0-1.26,4.38v8.8H48.68Z"/><path class="cls-2" d="M66.68,22.76a9.89,9.89,0,0,1,.92-4.26,10.29,10.29,0,0,1,2.56-3.44,12.16,12.16,0,0,1,3.9-2.3A14,14,0,0,1,79,11.92a14.2,14.2,0,0,1,4.9.82A12.36,12.36,0,0,1,87.82,15,10.34,10.34,0,0,1,90.4,18.5,10.69,10.69,0,0,1,91.32,23,10.41,10.41,0,0,1,87.8,30.9a11.65,11.65,0,0,1-3.94,2.26,15.2,15.2,0,0,1-5,.8,14.48,14.48,0,0,1-4.88-.8,11.1,11.1,0,0,1-3.86-2.28,10.6,10.6,0,0,1-2.54-3.54A11,11,0,0,1,66.68,22.76Zm7.64.08a4.54,4.54,0,0,0,.38,1.9,5,5,0,0,0,1,1.5,4.26,4.26,0,0,0,1.48,1,4.78,4.78,0,0,0,3.64,0,4.45,4.45,0,0,0,1.48-1,5.39,5.39,0,0,0,1-1.5,4.58,4.58,0,0,0,.38-1.86,4.5,4.5,0,0,0-.38-1.82,5.39,5.39,0,0,0-1-1.5,4.45,4.45,0,0,0-1.48-1,4.78,4.78,0,0,0-3.64,0,4.26,4.26,0,0,0-1.48,1,5,5,0,0,0-1,1.48A4.21,4.21,0,0,0,74.32,22.84Z"/><path class="cls-2" d="M102.72,0V33.2H95.48V0Z"/><path class="cls-2" d="M114.92,0V33.2h-7.24V0Z"/></g></g></g></g></svg>