<svg xmlns="http://www.w3.org/2000/svg" viewBox="0 0 144.28 33.96"><defs><style>.cls-1{isolation:isolate;}.cls-2{fill:#fff;}</style></defs><g id="图层_2" data-name="图层 2"><g id="图层_1-2" data-name="图层 1"><g id="Mobile" class="cls-1"><g class="cls-1"><path class="cls-2" d="M0,33.2,5.12,3h7.76l6,16.08L24.92,3h7.76L37.8,33.2H30L27.4,15.84,20.28,33.2H17.16L10.4,15.84,7.8,33.2Z"/><path class="cls-2" d="M41.28,22.76a10,10,0,0,1,.92-4.26,10.43,10.43,0,0,1,2.56-3.44,12.16,12.16,0,0,1,3.9-2.3,15,15,0,0,1,9.84,0A12.25,12.25,0,0,1,62.42,15,10.08,10.08,0,0,1,65,18.5,10.69,10.69,0,0,1,65.92,23,10.39,10.39,0,0,1,65,27.42,10.61,10.61,0,0,1,62.4,30.9a11.55,11.55,0,0,1-3.94,2.26,15.12,15.12,0,0,1-5,.8,14.48,14.48,0,0,1-4.88-.8,11.19,11.19,0,0,1-3.86-2.28,10.6,10.6,0,0,1-2.54-3.54A11.15,11.15,0,0,1,41.28,22.76Zm7.64.08a4.71,4.71,0,0,0,.38,1.9,5.18,5.18,0,0,0,1,1.5,4.35,4.35,0,0,0,1.48,1,4.78,4.78,0,0,0,3.64,0,4.35,4.35,0,0,0,1.48-1,5.18,5.18,0,0,0,1-1.5,4.58,4.58,0,0,0,.38-1.86,4.5,4.5,0,0,0-.38-1.82,5.18,5.18,0,0,0-1-1.5,4.35,4.35,0,0,0-1.48-1,4.78,4.78,0,0,0-3.64,0,4.35,4.35,0,0,0-1.48,1,5.22,5.22,0,0,0-1,1.48A4.37,4.37,0,0,0,48.92,22.84Z"/><path class="cls-2" d="M77.32,0V14.72A8.48,8.48,0,0,1,83.72,12a10.08,10.08,0,0,1,4.18.86,9.79,9.79,0,0,1,3.24,2.32,10.78,10.78,0,0,1,2.1,3.44,12.11,12.11,0,0,1,0,8.5A10.74,10.74,0,0,1,91,30.64,10.22,10.22,0,0,1,87.74,33a9.88,9.88,0,0,1-4.1.86,7.63,7.63,0,0,1-6.32-2.92V33.2H70.08V0Zm9.12,23a4.69,4.69,0,0,0-1.36-3.32,4.89,4.89,0,0,0-1.48-1,4.45,4.45,0,0,0-1.84-.38,4.52,4.52,0,0,0-1.8.36,4.37,4.37,0,0,0-1.46,1,5.18,5.18,0,0,0-1,1.5,4.61,4.61,0,0,0,0,3.62,4.37,4.37,0,0,0,1,1.46,5.18,5.18,0,0,0,1.5,1,4.61,4.61,0,0,0,3.62,0,4.37,4.37,0,0,0,1.46-1,5.22,5.22,0,0,0,1-1.48A4.29,4.29,0,0,0,86.44,23Z"/><path class="cls-2" d="M97.64,4.8a4.05,4.05,0,0,1,1.2-2.88,4.15,4.15,0,0,1,1.3-.88,4.06,4.06,0,0,1,3.16,0,4.15,4.15,0,0,1,2.18,2.18,4.06,4.06,0,0,1,0,3.16,4.15,4.15,0,0,1-2.18,2.18,4.06,4.06,0,0,1-3.16,0,4.15,4.15,0,0,1-1.3-.88,4.05,4.05,0,0,1-1.2-2.88Zm7.72,7.88V33.2H98.12V12.68Z"/><path class="cls-2" d="M117.56,0V33.2h-7.24V0Z"/><path class="cls-2" d="M129,24.16c0,3.12,1.46,4.68,4.4,4.68A3.93,3.93,0,0,0,137,26.92h7q-2.13,7-10.6,7a13.94,13.94,0,0,1-4.76-.78,10.56,10.56,0,0,1-3.7-2.22,9.88,9.88,0,0,1-2.38-3.44,11.47,11.47,0,0,1-.84-4.48,12.51,12.51,0,0,1,.8-4.62,9.66,9.66,0,0,1,2.28-3.5,10,10,0,0,1,3.58-2.22,13.54,13.54,0,0,1,4.74-.78,13.28,13.28,0,0,1,4.68.78A9.48,9.48,0,0,1,141.32,15a9.87,9.87,0,0,1,2.2,3.62,14.51,14.51,0,0,1,.76,4.82v.76Zm8.48-4.2A4.39,4.39,0,0,0,136,17.52a4.18,4.18,0,0,0-2.72-.92,4.12,4.12,0,0,0-2.74.88A3.94,3.94,0,0,0,129.24,20Z"/></g></g></g></g></svg>