<svg xmlns="http://www.w3.org/2000/svg" viewBox="0 0 132.56 43.88"><defs><style>.cls-1{isolation:isolate;}.cls-2{fill:#fff;}</style></defs><g id="图层_2" data-name="图层 2"><g id="图层_1-2" data-name="图层 1"><g id="Notify" class="cls-1"><g class="cls-1"><path class="cls-2" d="M0,33.64V3.48H7.84L22.32,21.92V3.48h7.8V33.64h-7.8L7.84,15.2V33.64Z"/><path class="cls-2" d="M35.28,23.2a10,10,0,0,1,.92-4.26,10.43,10.43,0,0,1,2.56-3.44,12.16,12.16,0,0,1,3.9-2.3,15,15,0,0,1,9.84,0,12.25,12.25,0,0,1,3.92,2.28A10.08,10.08,0,0,1,59,18.94a10.69,10.69,0,0,1,.92,4.46A10.39,10.39,0,0,1,59,27.86a10.61,10.61,0,0,1-2.58,3.48,11.55,11.55,0,0,1-3.94,2.26,15.12,15.12,0,0,1-5,.8,14.48,14.48,0,0,1-4.88-.8,11.19,11.19,0,0,1-3.86-2.28,10.6,10.6,0,0,1-2.54-3.54A11.15,11.15,0,0,1,35.28,23.2Zm7.64.08a4.71,4.71,0,0,0,.38,1.9,5.18,5.18,0,0,0,1,1.5,4.35,4.35,0,0,0,1.48,1,4.78,4.78,0,0,0,3.64,0,4.35,4.35,0,0,0,1.48-1,5.18,5.18,0,0,0,1-1.5,4.58,4.58,0,0,0,.38-1.86,4.5,4.5,0,0,0-.38-1.82,5.18,5.18,0,0,0-1-1.5,4.35,4.35,0,0,0-1.48-1,4.78,4.78,0,0,0-3.64,0,4.35,4.35,0,0,0-1.48,1,5.22,5.22,0,0,0-1,1.48A4.37,4.37,0,0,0,42.92,23.28Z"/><path class="cls-2" d="M72.28,19.16V33.64H65V19.16h-2.4v-6H65V7h7.24v6.16H76.4v6Z"/><path class="cls-2" d="M79.2,5.24a3.82,3.82,0,0,1,.32-1.58,4,4,0,0,1,.88-1.3,4,4,0,0,1,1.3-.88,4.06,4.06,0,0,1,3.16,0,4.27,4.27,0,0,1,1.3.88A4.33,4.33,0,0,1,87,3.66a4.06,4.06,0,0,1,0,3.16,4.33,4.33,0,0,1-.88,1.3,4.27,4.27,0,0,1-1.3.88,4.1,4.1,0,0,1-5.34-2.18A3.82,3.82,0,0,1,79.2,5.24Zm7.72,7.88V33.64H79.68V13.12Z"/><path class="cls-2" d="M99.72,19.16V33.64H92.48V19.16h-2.6v-6h2.6V10A14,14,0,0,1,93,6a7.07,7.07,0,0,1,1.28-2.38,9.1,9.1,0,0,1,2.06-1.9A9.82,9.82,0,0,1,98.84.44,8.74,8.74,0,0,1,101.52,0a7,7,0,0,1,1.7.2,9.67,9.67,0,0,1,1.58.56V7.08a8.16,8.16,0,0,0-1.34-.54,4.69,4.69,0,0,0-1.3-.18,3.13,3.13,0,0,0-.9.14,1.88,1.88,0,0,0-.86.58,2.37,2.37,0,0,0-.54,1.26,13.14,13.14,0,0,0-.14,2.22v2.56h5.08v6Z"/><path class="cls-2" d="M115,30.84,105,13.12h8.4l5.48,10.52,5.32-10.52h8.32L116.08,43.88H108Z"/></g></g></g></g></svg>