<svg xmlns="http://www.w3.org/2000/svg" viewBox="0 0 236.58 38.13"><defs><style>.cls-1{isolation:isolate;}.cls-2{fill:#1373e6;}</style></defs><g id="图层_2" data-name="图层 2"><g id="图层_1-2" data-name="图层 1"><g id="产品运营部门" class="cls-1"><g class="cls-1"><path class="cls-2" d="M1.56,4.22H16.88c-.32-1.25-.63-2.4-.94-3.44l7.5-.47c.1.73.31,1.72.62,3a4,4,0,0,1,.16.94H37.66V9.84H26.88l5,2c-.32.41-.89,1.09-1.72,2l-1.41,1.87h8v5.63H10.31v1.71a23.3,23.3,0,0,1-4.69,15L2.81,36.25c-1.25-.94-2.19-1.62-2.81-2A15.87,15.87,0,0,0,3.91,22.66V15.78h7.18c-.21-.31-.57-.78-1.09-1.4A28.14,28.14,0,0,0,8,12l3.91-2.19H1.56ZM17.5,14.06l-2.81,1.72h7a43.92,43.92,0,0,0,3.75-5.94H13.91C15.16,11.2,16.35,12.61,17.5,14.06Z"/><path class="cls-2" d="M41.56,37.5v-18h16.1v18H52V35.78H47.19V37.5ZM44.84,2.19h28.6V17H44.84Zm2.35,22.5v6.09H52V24.69Zm4.22-13H66.88V7.66H51.41ZM60.16,37.5v-18h16.4V37.34H70.94V35.78h-5V37.5Zm5.78-12.81v6.09h5V24.69Z"/><path class="cls-2" d="M97.5,31.41q13.44,0,20.78-.16A54.39,54.39,0,0,0,116.41,37H104.22l-8.28-.31q-6.09-.16-8.75-3.91A46.81,46.81,0,0,0,82.34,38L80,30.78q1.88-1.56,3.75-3v-8.9H80.16v-6.1H90V27.5Q92.19,31.25,97.5,31.41ZM86.25.16q1.25,1.71,3.44,5L91.56,8l-5.62,3.12c-.32-.52-.73-1.25-1.25-2.18Q83.6,7,81.09,3Zm24.53,17.18q3.6,5,6.88,10.47l-5.32,3-1.4-2.34q-4.53.15-11.56.47a28.5,28.5,0,0,0-4.69.47,2.58,2.58,0,0,1-.63.15l-2.34-5.31a12.48,12.48,0,0,0,3.59-3,1.53,1.53,0,0,0,.31-.47A25.26,25.26,0,0,0,98.28,17H91.56V11.41H117.5V17h-12c-1.88,2.61-3.49,4.69-4.85,6.25a34,34,0,0,1,3.76-.16c1.56-.1,2.75-.15,3.59-.15-.21-.42-.58-1-1.09-1.88-.42-.62-.74-1.09-.94-1.4ZM93.59,2.19h21.88V7.81H93.59Z"/><path class="cls-2" d="M142.66.31h5.93v2h9.07V7h-9.07V8.28h-5.93V7h-7.19V8.28h-5.94V7h-9.06V2.34h9.06v-2h5.94v2h7.19ZM121.09,16.88V9.06H157v7.82h-5v7.65H125.94V16.88Zm2,20.93V26.09H155V37.81h-6.25v-1.4H129.38v1.4Zm4.07-24.53v1.41h23.75V13.28Zm2.19,17.19v1.87h19.37V30.47Zm16.56-11.72H132v1.72h13.91Z"/><path class="cls-2" d="M180.47,9.22h-4.38l3.44,1.09a13.55,13.55,0,0,0-1.41,2.35c-.41.73-.73,1.25-.93,1.56h4.22v5H160.16v-5h4.22a21.8,21.8,0,0,0-2.5-3.44l3.28-1.56h-3.91v-5h6.41c-.32-1.25-.63-2.4-.94-3.44l6.56-.47c.1.42.26,1.05.47,1.88s.36,1.51.47,2h6.25Zm-13,28h-5.78V21.41H180V37h-5.62V35.31H167.5ZM170,12.81l-2.66,1.41h3.75l.94-1.88a20,20,0,0,0,1.56-3.12h-6.25a5.88,5.88,0,0,1,.78,1.09A18.18,18.18,0,0,1,170,12.81Zm-2.5,13.75v4.06h6.88V26.56Zm26.88-9.06a12.16,12.16,0,0,1,3.74,8.91q.31,6.87-5.93,7.18h-3.13l-.94-4.06v8.28H182.5V2.19h14.84V7.81Zm-6.26-9.69V28h2.19c1.36.1,2-.68,2-2.35q0-3.44-3.43-7.81l2.5-10Z"/><path class="cls-2" d="M201.72,10.78h6.72V37.5h-6.72ZM202,3l5.63-3q2.34,3,4.68,6.25l-6.09,3.44c-.21-.31-.52-.83-.94-1.57Q203.44,5,202,3Zm34.53,27.65q.31,6.4-6.09,6.57c-1.56.1-4.64.15-9.22.15q-.63-3.12-1.41-6.25c1.88.11,4.22.16,7,.16,2.18.11,3.17-.73,3-2.5V8.91H213.75V2.66h22.81Z"/></g></g></g></g></svg>