<svg xmlns="http://www.w3.org/2000/svg" viewBox="0 0 236.58 38.28"><defs><style>.cls-1{isolation:isolate;}.cls-2{fill:#1373e6;}</style></defs><g id="图层_2" data-name="图层 2"><g id="图层_1-2" data-name="图层 1"><g id="产品运营部门" class="cls-1"><g class="cls-1"><path class="cls-2" d="M15.31.62h6.88c-.11,2-.21,3.91-.31,5.79q.47,18.12,16.24,24.68c-.52.63-1.3,1.52-2.34,2.66-1.15,1.56-2,2.71-2.66,3.44Q22.19,31.25,19.06,20.78,16.57,30.47,4.22,37.66A43.13,43.13,0,0,0,0,31.88q15-7.5,15-22.35Q15.32,5.78,15.31.62Z"/><path class="cls-2" d="M52.66.31h7c-.11,2.3-.26,4.69-.47,7.19H76.41q-.63,11.57-1.25,22-.31,7.35-8,7.35c-1.36,0-3.28,0-5.78.15H58a8.64,8.64,0,0,1-.31-1.41c-.53-2.39-.89-4.11-1.1-5.15,1.36.1,4,.15,7.82.15q4.22.31,4.06-4.21c.21-1.88.36-5.26.47-10.16q.15-1.56.15-2.34H58.75q0,16.24-14.22,24.06c0-.11-.1-.21-.31-.31a45.24,45.24,0,0,0-4.38-5q12-6.4,12-18.75H41.25V7.5H52.34c0-.83.06-2,.16-3.59A29.75,29.75,0,0,1,52.66.31Z"/><path class="cls-2" d="M84.38,30.16V18.75a5,5,0,0,0-.79.63l-3.43-4.69,5.62-3.75c1.15-.83,2-1.46,2.66-1.88l3.75,4.06a3.35,3.35,0,0,1-.78.47,3.22,3.22,0,0,1-.79.63q9.22-2,9.85-5.78a1.94,1.94,0,0,0,.31-1.1H98.12a23.47,23.47,0,0,1-3.74,4.54q-1.72-1.41-4.69-3.44Q94.22,4.38,95.47.31l6.09.31c-.31.74-.62,1.41-.94,2h16.26V7.34l-2.19,4.38L109.22,10l1.4-2.66h-3.9a1.07,1.07,0,0,1-.16.47,1,1,0,0,1-.15.63q1.71,3.9,11.87,5.31c-.94,2-1.09,2.29-.47.94q-.93,2-2,4.37c-.73-.2-1.4-.36-2-.47v11.1H107.5V23.44H90.62v6.72Zm11.56-5.63h6.25a23.29,23.29,0,0,1-.63,3.91q8,2.19,16.1,4.53L115,37.81c-.52-.21-1.2-.47-2-.78q-9.06-3-14.22-4.22-4.06,3.44-16.09,5-.94-2.34-2.5-5.31,10-.78,12.81-2.34C95,29.32,95.94,27.45,95.94,24.53ZM85,.47c.31.21.78.57,1.41,1.09Q90,4.38,90.78,5.16L86.56,9.38q-2.19-2.19-5.62-5Zm5.62,13.75c-2.5,1.77-4.42,3.18-5.78,4.22H93a3.75,3.75,0,0,1-.47-.78C91.67,16.2,91,15.05,90.62,14.22Zm22.5,4.22q-6.87-1.87-9.06-4.85-2.49,2.82-9.06,4.85Z"/><path class="cls-2" d="M124.69,11.09c.52.63,1.19,1.52,2,2.66l2.81,3.75-5.15,3.44c-.84-1.36-2.19-3.39-4.07-6.1.11.21,0,0-.47-.62Zm-1.41,11.1,5.47,1.4a25.24,25.24,0,0,1-.63,2.66q-1.4,7-2.18,11.09l-5.47-1.4Q121.57,31.71,123.28,22.19Zm29.84,4.53c.42.52.94,1.2,1.57,2q2.49,3,3.59,4.53l-4.22,2.81a40.76,40.76,0,0,0-2.5-3.43l-2-2.82v3.44c0,2.71-1.3,4.11-3.91,4.22-1.66,0-3.22,0-4.68.16-.11-.53-.32-1.46-.63-2.82a10,10,0,0,0-.31-1.4,21.13,21.13,0,0,0-1.88,2.34,3.39,3.39,0,0,1-.62.94,35.47,35.47,0,0,0-3.75-3.28,15.21,15.21,0,0,1-.78,2L132,38.28q-2.66-2.34-5-4.37,3.28-5.94,3-18V7.19l-4.69,3.12a5.55,5.55,0,0,1-.78-1.09q-2.5-3.6-3.91-5.47L125.47.62q2.34,2.82,4.53,5.63V1.88h27.81V7h-9.22a23.24,23.24,0,0,1-.78,2.5h8.6V26.41h-6.88v2.65ZM137.19,9.53h4.69V9.22A11.86,11.86,0,0,1,142.5,7h-6.72v8.59q.15,11.88-2,17.66a39.27,39.27,0,0,0,5.31-6.72l4.38,2.35Q142,31.1,140.62,33h2c.93,0,1.4-.52,1.4-1.56v-5h-6.87Zm5.47,4.69v1.87h8.28V14.22Zm8.28,7.5v-2h-8.28v2Z"/><path class="cls-2" d="M180.47,9.22h-4.38l3.44,1.09a14.21,14.21,0,0,0-1.41,2.35q-.62,1.1-.93,1.56h4.22v5H160.16v-5h4.22a21.18,21.18,0,0,0-2.5-3.44l3.28-1.56h-3.91v-5h6.41c-.32-1.25-.63-2.4-.94-3.44l6.56-.47c.1.42.26,1.05.47,1.88s.36,1.51.47,2h6.25Zm-13,28h-5.78V21.41H180V37h-5.62V35.31H167.5ZM170,12.81l-2.66,1.41h3.75l.94-1.88a20,20,0,0,0,1.56-3.12h-6.25a5.88,5.88,0,0,1,.78,1.09A18.18,18.18,0,0,1,170,12.81Zm-2.5,13.75v4.06h6.88V26.56Zm26.88-9.06a12.16,12.16,0,0,1,3.74,8.91q.31,6.87-5.93,7.18h-3.13l-.94-4.06v8.28H182.5V2.19h14.84V7.81Zm-6.26-9.69V28h2.19c1.36.1,2-.68,2-2.35q0-3.44-3.43-7.81l2.5-10Z"/><path class="cls-2" d="M201.72,10.78h6.72V37.5h-6.72ZM202,3l5.63-3q2.34,3,4.68,6.25l-6.09,3.44c-.21-.31-.52-.83-.94-1.57Q203.44,5,202,3Zm34.53,27.65q.31,6.4-6.09,6.57c-1.56.1-4.64.15-9.22.15q-.63-3.12-1.41-6.25c1.88.11,4.22.16,7,.16,2.18.11,3.17-.73,3-2.5V8.91H213.75V2.66h22.81Z"/></g></g></g></g></svg>