<svg xmlns="http://www.w3.org/2000/svg" viewBox="0 0 238.28 38.13"><defs><style>.cls-1{isolation:isolate;}.cls-2{fill:#1373e6;}</style></defs><g id="图层_2" data-name="图层 2"><g id="图层_1-2" data-name="图层 1"><g id="产品运营部门" class="cls-1"><g class="cls-1"><path class="cls-2" d="M10,.31v6.1h2.81V12H10v5a16.41,16.41,0,0,0,3.12-.62V22.5a7.07,7.07,0,0,0-1.56.31c-.62.11-1.14.21-1.56.31v9.22c.1,3.13-1.3,4.74-4.22,4.85a29.85,29.85,0,0,1-4.37.31c-.32-2-.68-3.86-1.1-5.62h2.5c.94,0,1.36-.58,1.25-1.72V24.38c-1.14.2-2.34.46-3.59.78L0,18.44c.52-.11,1.2-.21,2-.32a11.48,11.48,0,0,1,2-.31V12H.47V6.41H4.06V.31ZM36.25,14.38v5.78a28.1,28.1,0,0,1-6.09,8.75,32.27,32.27,0,0,0,8.12,3,38.26,38.26,0,0,0-3,5.46A77.85,77.85,0,0,1,25,33a77,77,0,0,1-11.09,4.84,42.48,42.48,0,0,0-3.29-5.31,41.35,41.35,0,0,0,9.22-3.59,41.08,41.08,0,0,1-5.62-7.19l3.44-1.88H13.91V14.38h8V10.94H13.75V5.31h8.13v-5h6.24v5h9.22v5.63H28.12v3.44ZM19.84,19.84A34.35,34.35,0,0,0,25,25.62a24.69,24.69,0,0,0,4.84-5.78Z"/><path class="cls-2" d="M55.78.16h6.41V8.44h6.56a33.85,33.85,0,0,0-4.37-4.22L68.12.62c.73.53,1.78,1.36,3.13,2.5l3,2.5-3,2.82h5.47v6.09H63.59Q68.12,22.81,78.12,27q-1.56,3.43-2.65,6.56Q66.24,28.76,62.19,22V37.66H55.78V22.19a35.13,35.13,0,0,1-13,11.87c-.93-1.87-1.93-3.9-3-6.09q9.85-5.16,14.54-13.44H41.56V8.44H55.78Z"/><path class="cls-2" d="M80.78,2.5H95.47V8.12h-5c-.63,1.67-1.3,3.39-2,5.16h6.87V32.81q3.6-3.9,3.91-10.93H95.94V16.09h3.28V7.81H96.56V2h20.63V7.81h-3v8.28H118v5.79h-3.75V37h-5.78V21.88h-3.6a22,22,0,0,1-6.09,16.24l-2-2c-1.15-1-1.93-1.77-2.34-2.18H88v2.34H82.66v-13c-.63.84-1.31,1.72-2,2.66-.1-1.15-.26-3-.46-5.47-.11-1.15-.21-2-.32-2.66a40,40,0,0,0,4.54-9.69h-3.6Zm9.38,15.94H88V29.06h2.19ZM105,7.81v8.28h3.44V7.81Z"/><path class="cls-2" d="M154.69,15.62v5a31,31,0,0,1-7.19,8.13,57.86,57.86,0,0,0,10.62,2.5,47.71,47.71,0,0,0-3.28,6.25,86,86,0,0,1-13.28-4.84,124.94,124.94,0,0,1-13.28,5.15,1.16,1.16,0,0,0-.16-.47,38.83,38.83,0,0,0-2.81-5.15c-.41.31-1,.78-1.72,1.4a19.58,19.58,0,0,1-1.87,1.72c-.11-.73-.37-1.87-.78-3.43-.42-1.88-.68-3.13-.78-3.76a36.42,36.42,0,0,0,10-15.15h-8.91V7.5q.15-.46.63-1.56,1.08-3,1.56-4.53l6.25.62a32.39,32.39,0,0,0-1.25,3.13c-.42,1.14-.68,1.87-.78,2.18H132q.78-2.8,1.72-6.56a2.7,2.7,0,0,0,.16-.78l6.56.62-.94,3.76c-.31,1.24-.57,2.24-.78,3h9.06q-1.25-1.39-3.59-3.75l3.9-3.43q3.75,3.12,5.79,5.15l-2.19,2H158V13H137c-.1.31-.26.73-.47,1.25s-.36,1.09-.47,1.4Zm-18.6,13.13a44.72,44.72,0,0,1-4.21-4.84,49.5,49.5,0,0,1-6.57,8.28A57.29,57.29,0,0,0,136.09,28.75Zm.63-7.81a21.37,21.37,0,0,0,4.84,4.84A25.24,25.24,0,0,0,147,20.94Z"/><path class="cls-2" d="M175.62.16h6.72v6.4h13.91V28.28h-6.56V26.09h-7.35V37.81h-6.72V26.09h-7.18v2.19h-6.72V6.56h13.9Zm-7.18,12.5V20h7.18V12.66Zm21.25,0h-7.35V20h7.35Z"/><path class="cls-2" d="M203.91,12l5.93,1.88V9.38h6.88V28c-.11,1.77.73,2.6,2.5,2.5h2.19a2.66,2.66,0,0,0,2.81-2.5c.21-1.35.41-3.07.62-5.16a45.77,45.77,0,0,0,4.38,1.57c.94.31,1.66.57,2.19.78a61.92,61.92,0,0,1-1.25,6.72q-1.09,4.68-7.5,4.53h-5.47q-7.5.15-7.35-7.19V14.38q-2.34,8.43-4.37,14.53l-5.94-2.35c.1-.41.31-1.14.63-2.18Q202.65,16.4,203.91,12ZM215.47.16q4.68,2.49,11.25,6.72l-4.06,5.46q-6.57-4.53-11.1-7.18Zm15.62,11.25q2.82,4.22,7.19,11.56l-5.78,3.28-2.34-4.06-4.69-7.81Z"/></g></g></g></g></svg>