<svg xmlns="http://www.w3.org/2000/svg" viewBox="0 0 238.28 37.81"><defs><style>.cls-1{isolation:isolate;}.cls-2{fill:#1373e6;}</style></defs><g id="图层_2" data-name="图层 2"><g id="图层_1-2" data-name="图层 1"><g id="产品运营部门" class="cls-1"><g class="cls-1"><path class="cls-2" d="M20.16,37.5h-6.1V18.44a21.89,21.89,0,0,1-1.56,2,9.13,9.13,0,0,0-.16-1.56A10.38,10.38,0,0,0,12,17.34v5.47a9,9,0,0,1-2.34.63V32.5c.1,3-1.25,4.58-4.07,4.69a29.85,29.85,0,0,1-4.37.31,4.07,4.07,0,0,0-.16-.78c-.21-1.36-.52-3-.93-4.84h2.5c.93,0,1.35-.52,1.25-1.57V25.16c-1.05.31-2.19.62-3.44.93L0,19.53a2.63,2.63,0,0,0,.78-.15c.83-.21,1.88-.42,3.13-.63V12.19H.62V6.56H3.91V.31H9.69V6.56h2.65v4.69A39,39,0,0,0,16.88,0l6.56.78c-.21.63-.58,1.56-1.1,2.81s-.88,2.35-1.09,3h4.69c-.52-1.66-1.1-3.38-1.72-5.15L30.47.78l.47,1.41c.31,1,.73,2.5,1.25,4.37H37.5v5H31.25v3.13H37v5H31.25v3H37v5H31.25v3.28h6.56v4.68H20.16ZM9.69,17.34a11.64,11.64,0,0,1,2.19-.46,34.57,34.57,0,0,0-.79-3.6,2.27,2.27,0,0,0,.63-1.09h-2Zm10.47-5.78v3.13h5V11.56Zm0,8.13v3h5v-3Zm0,8v3.28h5V27.66Z"/><path class="cls-2" d="M50.47,18a54.13,54.13,0,0,1-.94,11.56,26.32,26.32,0,0,1-3.59,8.28Q43.12,35.62,40,33.44a19.5,19.5,0,0,0,3.12-6.25A47.25,47.25,0,0,0,43.75,18V4.53H57.34c-.21-.73-.57-1.92-1.09-3.59a2.91,2.91,0,0,1-.16-.63L64.53,0q.15.63.63,2.19c.2,1.14.36,1.93.46,2.34H77.81v6.25H50.47Z"/><path class="cls-2" d="M85.94,0,92,.62c-.31.63-.62,1.2-.94,1.72h8.13V5.78A27.23,27.23,0,0,0,102.81,0l6.1.62c-.32.63-.63,1.2-.94,1.72h9.69V7h-6.72a25.82,25.82,0,0,0,2.5,1.88l-3,2.65h7v4.85H102v1.87h13.59v5.63c.11,3.12-1.35,4.74-4.37,4.84h-2.34a42.89,42.89,0,0,0,9.37,3q-1.56,3.12-2.81,5.47-9.23-3-13.44-7v7.5H95.94V30.31Q92,34.06,82.66,37.5c-.21-.42-.58-1.2-1.1-2.34-.83-1.46-1.4-2.55-1.72-3.28q11.1-2.65,16.1-8.44V23H89.06v5.31H83.12v-10H95.94V16.41H80.62V11.56H91.25c-.31-.31-.83-.78-1.56-1.4a14.94,14.94,0,0,0-1.57-1.41L90.31,7H88a50.49,50.49,0,0,1-4.06,4.22c-.53-.52-1.41-1.3-2.66-2.34-.63-.52-1.09-.94-1.41-1.25A24.34,24.34,0,0,0,85.94,0Zm10,9.69h4.68a18.54,18.54,0,0,0-2-1.25,6.4,6.4,0,0,1-1.09-.78L98.12,7H93a1.53,1.53,0,0,0,.47.31,13.78,13.78,0,0,1,2.34,1.88L93,11.56h3ZM105,7a18,18,0,0,1-1.88,2.35A5.26,5.26,0,0,0,102,10.47v1.09h6.88q-1.41-1.1-3.44-3L107.34,7ZM109.69,23H102v.47a20.3,20.3,0,0,0,5.63,4.68,15.77,15.77,0,0,1-.78-2,10.36,10.36,0,0,1-.63-1.4,7,7,0,0,1,1.25.15h.94c.94-.1,1.35-.46,1.25-1.09Z"/><path class="cls-2" d="M148.12,27.66h-5.31a33.88,33.88,0,0,1-1.72,5.46c-1.35,2.82-3.17,4.22-5.47,4.22q-4.05.16-6.56-4.37c-.31-.63-.62-1.3-.94-2a28.48,28.48,0,0,1-5.15,3,20.77,20.77,0,0,1-1.25-2c-.73-1.36-1.36-2.45-1.88-3.29.42-.2,1-.57,1.88-1.09a35.47,35.47,0,0,0,4.53-2.66,87.28,87.28,0,0,1-.94-9.22l-4.53.47-.62-5.62L125,10q-.15-5-.47-9.84h6.09c0,1.77.11,4.68.32,8.75-.21-3-.21-2.87,0,.47l9.53-.94.62,5.47-10,1.09q.32,3.29.47,5.62a51,51,0,0,0,4.69-5.46l5,3.12A58.1,58.1,0,0,1,133,27.19a14.46,14.46,0,0,0,1.09,2.5c.42.83.84,1.25,1.25,1.25s.94-.52,1.25-1.56c.42-1.46.78-3,1.1-4.69q2,.93,4.84,2.19V5h5.62ZM134.53.78q3.75,2.34,5.63,3.6l-3.75,4.21c-.42-.31-1-.78-1.72-1.4-1.36-1-2.5-2-3.44-2.81ZM150.62.47h6.1V31.41q.32,5.62-5.78,5.47a28.81,28.81,0,0,1-3.28.15c-1.25.1-2.3.16-3.13.16a45.56,45.56,0,0,0-1.41-6.1c2,.11,3.65.16,5,.16,1.78.11,2.61-.57,2.5-2Z"/><path class="cls-2" d="M175.62.16h6.72v6.4h13.91V28.28h-6.56V26.09h-7.35V37.81h-6.72V26.09h-7.18v2.19h-6.72V6.56h13.9Zm-7.18,12.5V20h7.18V12.66Zm21.25,0h-7.35V20h7.35Z"/><path class="cls-2" d="M203.91,12l5.93,1.88V9.38h6.88V28c-.11,1.77.73,2.6,2.5,2.5h2.19a2.66,2.66,0,0,0,2.81-2.5c.21-1.35.41-3.07.62-5.16a45.77,45.77,0,0,0,4.38,1.57c.94.31,1.66.57,2.19.78a61.92,61.92,0,0,1-1.25,6.72q-1.09,4.68-7.5,4.53h-5.47q-7.5.15-7.35-7.19V14.38q-2.34,8.43-4.37,14.53l-5.94-2.35c.1-.41.31-1.14.63-2.18Q202.65,16.4,203.91,12ZM215.47.16q4.68,2.49,11.25,6.72l-4.06,5.46q-6.57-4.53-11.1-7.18Zm15.62,11.25q2.82,4.22,7.19,11.56l-5.78,3.28-2.34-4.06-4.69-7.81Z"/></g></g></g></g></svg>