<svg xmlns="http://www.w3.org/2000/svg" viewBox="0 0 118.14 37.66"><defs><style>.cls-1{isolation:isolate;}.cls-2{fill:#1373e6;}</style></defs><g id="图层_2" data-name="图层 2"><g id="图层_1-2" data-name="图层 1"><g id="产品运营部门" class="cls-1"><g class="cls-1"><path class="cls-2" d="M23.59,22v4.53a16.63,16.63,0,0,1-2.34,4.53l2.34,1.57c.94-.32,1.77-.63,2.5-.94a21.18,21.18,0,0,1-2.5-3.44l3.13-1.87H24.38V22H37.19v4.69a27.62,27.62,0,0,1-3,5A18.54,18.54,0,0,0,38.28,33a21.19,21.19,0,0,0-2.34,4.37,27.35,27.35,0,0,1-5.78-2.5,33.56,33.56,0,0,1-5.78,2.66c-.11-.21-.27-.47-.47-.78s-.84-1.15-1.57-2.19l-1.72,2c-.31-.21-.78-.57-1.4-1.09a9.59,9.59,0,0,1-1.41-1.09,35.4,35.4,0,0,1-5.62,3.28c-.21-.32-.63-.89-1.25-1.72-.84-1.25-1.41-2.14-1.72-2.66a14.22,14.22,0,0,0,4.22-1.56c-.32-.21-.84-.57-1.56-1.1s-1.31-.72-1.72-.93L13,26.41h-2V23.28a4,4,0,0,0-.94.16,2.26,2.26,0,0,0-.94.15v7.82c0,3.43-1.35,5.26-4.06,5.47A17.73,17.73,0,0,0,3,37a10.15,10.15,0,0,0-2,.16A27.14,27.14,0,0,0,0,31.41a10.14,10.14,0,0,0,1.88.15c1,0,1.56-.62,1.56-1.87V24.84a17.58,17.58,0,0,0-3,.63L0,18.91c1.25-.21,2.4-.37,3.44-.47V12.66H.78V6.88H3.44V.16H9.06V6.88h2.82v5.78H9.06V17.5a10.38,10.38,0,0,0,2-.31c-.62.21-.47.21.47,0V22ZM11.41,1.41H37.19V5.78H35V16.09l2.81-.15v4.22H35v1.25H29.38v-.94L12,20.94l-.15-4.22h1.87V5.78H11.41Zm7,25H13.28A34.57,34.57,0,0,1,17,28.59,11.37,11.37,0,0,0,18.44,26.41Zm.94-20.63V7.19h10V5.78Zm0,4.69v1.25h10V10.47Zm0,4.69v1.4l10-.31V15.16Zm8.28,11.25L30,29.06a10.22,10.22,0,0,0,2.19-2.65Z"/><path class="cls-2" d="M55,29.22V33c.1,2.71-1.15,4.11-3.75,4.22a42.61,42.61,0,0,1-4.37.15,2.87,2.87,0,0,0-.16-.62,18.85,18.85,0,0,1-.63-2.5c-.41.41-.93,1-1.56,1.72l-1.41,1.4c-1.24-1.46-2.39-2.71-3.43-3.75a41.84,41.84,0,0,0,5-4.37h-2.5V20.31H61.41v8.91ZM41.88,13.59V1.09H61.72v12.5h-7L55,15h8.28v4.06H40.16V15h8.9l-.31-1.41Zm6.71,18.29A8.76,8.76,0,0,1,47.34,33h1.1c.94.1,1.35-.26,1.25-1.09V29.22H45Zm-1.4-27V6.09h9.22V4.84Zm0,5.32h9.22V8.91H47.19Zm.47,15.46h8.28V23.91H47.66Zm11.09,3.6.47.47c.62.52,1.56,1.25,2.81,2.19A49.17,49.17,0,0,0,74.22,22.5l4.06,4.22A57.46,57.46,0,0,1,63.59,37.66l-1.87-2.82L60,36.56a39.74,39.74,0,0,0-4.69-4.37Zm15-17.66,3.91,4.22a61.44,61.44,0,0,1-12.19,9.06c-.21-.31-.47-.72-.78-1.25A33.18,33.18,0,0,0,62.19,20,37.55,37.55,0,0,0,73.75,11.56Zm3.44-7a69.68,69.68,0,0,1-11.57,8.75,7.64,7.64,0,0,0-.46-.78q-1.72-2.65-2.82-4.06a44.16,44.16,0,0,0,10.78-8Z"/><path class="cls-2" d="M100.47,8.91H96.09L99.53,10a14,14,0,0,0-1.41,2.34c-.41.73-.72,1.25-.93,1.57h4.22v5H80.16v-5h4.22a21.18,21.18,0,0,0-2.5-3.44l3.28-1.56H81.25v-5h6.41c-.32-1.25-.63-2.4-.94-3.44L93.28,0c.1.42.26,1,.47,1.88s.36,1.51.47,2h6.25Zm-13,28H81.72V21.09H100V36.72H94.38V35H87.5ZM90,12.5l-2.66,1.41h3.75L92,12a20,20,0,0,0,1.56-3.12H87.34A5.88,5.88,0,0,1,88.12,10,18.18,18.18,0,0,1,90,12.5ZM87.5,26.25v4.06h6.88V26.25Zm26.88-9.06a12.16,12.16,0,0,1,3.74,8.9q.31,6.89-5.93,7.19h-3.13l-.94-4.06V37.5H102.5V1.88h14.84V7.5ZM108.12,7.5V27.66h2.19c1.36.1,2-.68,2-2.35q0-3.43-3.43-7.81l2.5-10Z"/></g></g></g></g></svg>