<svg xmlns="http://www.w3.org/2000/svg" viewBox="0 0 238.75 37.81"><defs><style>.cls-1{fill:#1373e6;}</style></defs><g id="图层_2" data-name="图层 2"><g id="图层_1-2" data-name="图层 1"><path class="cls-1" d="M0,32.5q1.41-2.82,3.28-7.66l4.53,1.57q-1.09,3-2.34,5.62H6.88q1.71.16,1.56-1.56V24.38h-7v-5h7V17.5H.78v-5H4.84Q3.75,11.09,2.5,9.38L5.16,8.12H1.56V3.28h6.1A11.05,11.05,0,0,1,7.19.94,1.16,1.16,0,0,1,7,.47L13.59,0a14,14,0,0,1,.63,3.28h5.94V8.12H16.25l3.13,1.1c-.21.31-.58.83-1.1,1.56a18.68,18.68,0,0,1-1.09,1.72h3.59v5H14.22v1.88h6.09v5H14.22V32c.1,3.13-1.46,4.79-4.69,5H8a23.27,23.27,0,0,1-2.35.16c-.1-.42-.26-1.15-.46-2.19a17.19,17.19,0,0,0-.32-1.88,1.52,1.52,0,0,1-.31.63,1.91,1.91,0,0,1-.31.47ZM10.31,11.25,8,12.5h3.44c.93-1.56,1.77-3,2.5-4.38H7.81A32.93,32.93,0,0,0,10.31,11.25ZM36.41,1.09l1.87,5.47c-1.35.21-3.44.47-6.25.78l-4.53.47v4.85H38.44v5.62h-3V36.72H29.84V18.28H27.5a59,59,0,0,1-.78,10.94,35.88,35.88,0,0,1-3,8.44q-2.51-1.72-5.16-3.44A17.43,17.43,0,0,0,20,31.09L17,32.5a51.22,51.22,0,0,0-2.81-5.94l4.37-1.87q1.1,2.19,2.19,4.06a55.69,55.69,0,0,0,.78-11.09v-15A129.37,129.37,0,0,0,36.41,1.09Z"/><path class="cls-1" d="M46.09,9.84Q45.16,8.45,43,5.47a23.85,23.85,0,0,1-1.56-2.19L46.56,0c.84.94,2,2.29,3.44,4.06a21.62,21.62,0,0,0,1.72,2ZM42,37.34v-27H48v27Zm7-28.59H70v4.53H68.12V25.62a17.31,17.31,0,0,0,2.35-.15c-.11,1.87-.16,3.49-.16,4.84H69.22a4.35,4.35,0,0,1-1.1.16v1.87h1.1c1.46.11,2.13-.46,2-1.72V6.88H52.34V1.56H77.19V31.72Q77.34,37,71.72,37c-.94.1-2.66.16-5.16.16q-.32-1.26-.78-3h-3V30.78c-1.46.11-3.75.26-6.87.47l-6.88.47-.62-5h2.5V13.28H49.06Zm7.35,4.53v1.56h6.4V13.28Zm0,5.63v1.56h6.4V18.91Zm0,7.5q3.12-.32,6.4-.47V24.53h-6.4Z"/><path class="cls-1" d="M84.84,29.84V18.44a6.07,6.07,0,0,0-.78.62l-3.44-4.68,5.63-3.76c1.15-.83,2-1.45,2.66-1.87l3.75,4.06a3.75,3.75,0,0,1-.78.47,3.8,3.8,0,0,1-.79.63q9.22-2,9.85-5.79A1.89,1.89,0,0,0,101.25,7H98.59a23.08,23.08,0,0,1-3.75,4.53c-1.14-.94-2.71-2.08-4.68-3.44q4.53-4,5.78-8.12L102,.31c-.31.73-.62,1.41-.94,2h16.25V7l-2.18,4.38-5.47-1.72L111.09,7h-3.9a1.28,1.28,0,0,1-.16.47.91.91,0,0,1-.15.62q1.71,3.92,11.87,5.32c-.94,2-1.09,2.29-.47.94q-.93,2-2,4.37a19.9,19.9,0,0,0-2-.47v11.1H108V23.12H91.09v6.72Zm11.57-5.62h6.25a24.23,24.23,0,0,1-.63,3.9q8,2.19,16.09,4.54l-2.65,4.84c-.52-.21-1.2-.47-2-.78q-9.06-3-14.22-4.22-4.06,3.44-16.1,5a54.4,54.4,0,0,0-2.5-5.31q10-.78,12.82-2.35Q96.41,28.6,96.41,24.22ZM85.47.16c.31.21.78.57,1.41,1.09q3.59,2.81,4.37,3.59L87,9.06q-2.19-2.18-5.62-5Zm5.62,13.75c-2.5,1.77-4.42,3.17-5.78,4.21h8.13a3.24,3.24,0,0,1-.47-.78C92.13,15.89,91.51,14.74,91.09,13.91Zm22.5,4.21q-6.87-1.86-9.06-4.84-2.5,2.82-9.06,4.84Z"/><path class="cls-1" d="M133,23.75a25,25,0,0,0,1.87,5.94q-4.07,3.28-9.06,8.12L121.88,33a6.43,6.43,0,0,0,1.56-4.22V18.28h-3V12.34h9.06v15Q131.87,25,133,23.75ZM126.09,0q3,3.75,5.47,7.19l-5.62,3.59a88.56,88.56,0,0,0-5.16-7.66ZM132,8V2h21.56V24.84a39.74,39.74,0,0,0,.16,4.22c.1.63.26.94.47.94s.36-.31.47-.94a46.63,46.63,0,0,0,.78-6.4,20.67,20.67,0,0,0,3.28,1.56,47.54,47.54,0,0,1-1.41,8.9Q156.09,37,153.28,37q-5.62.15-5.78-9.37c-.1-1.36-.16-5.26-.16-11.72V8h-5.15v8.28h4.22v5.94h-4.22V37.34h-6.25V22.19h-5V16.25h5V8Z"/><path class="cls-1" d="M176.09,0h6.72V6.41h13.91V28.12h-6.56V25.94h-7.35V37.66h-6.72V25.94h-7.18v2.18h-6.72V6.41h13.9Zm-7.18,12.5v7.34h7.18V12.5Zm21.25,0h-7.35v7.34h7.35Z"/><path class="cls-1" d="M204.38,11.88l5.93,1.87V9.22h6.88V27.81c-.11,1.77.73,2.61,2.5,2.5h2.19a2.66,2.66,0,0,0,2.81-2.5c.21-1.35.41-3.07.62-5.15q1.41.61,4.38,1.56,1.4.47,2.19.78a58.71,58.71,0,0,1-1.26,6.72q-1.08,4.68-7.5,4.53h-5.46q-7.5.15-7.35-7.19V14.22q-2.34,8.43-4.37,14.53L200,26.41c.1-.42.31-1.15.62-2.19Q203.13,16.26,204.38,11.88ZM215.94,0q4.68,2.51,11.25,6.72l-4.07,5.47Q216.57,7.66,212,5Zm15.62,11.25q2.82,4.22,7.19,11.56L233,26.09,230.62,22l-4.68-7.81Z"/></g></g></svg>