<svg xmlns="http://www.w3.org/2000/svg" viewBox="0 0 158.13 38.28"><defs><style>.cls-1{isolation:isolate;}.cls-2{fill:#1373e6;}</style></defs><g id="图层_2" data-name="图层 2"><g id="图层_1-2" data-name="图层 1"><g id="产品运营部门" class="cls-1"><g class="cls-1"><path class="cls-2" d="M12.34,18.91c.73.73,1.57,1.51,2.5,2.34V1.72H36.25V24.84H30.31V7.34H20.47v17.5q1.56-2.81,2-8.9c0-.83.05-2,.16-3.6V9.22h5.78c0,.62-.06,1.67-.16,3.12a24,24,0,0,1-.16,3.28A27,27,0,0,1,27.19,23h2.65v7.65c0,1.15.37,1.67,1.1,1.57s1.3-.47,1.4-1.41a26.61,26.61,0,0,0,.47-4.69Q36.73,27.5,38.12,28q-.46,2.34-.93,5.31c-.52,2.71-2.35,4-5.47,3.91H29.06q-4.68,0-4.68-5V29.53Q22,33.28,15.31,38c-.42-.52-1.2-1.46-2.34-2.81a23.83,23.83,0,0,0-1.56-1.88q6.87-4.22,8.9-8.12h-5l-2,1.87c-.31-.31-.78-.83-1.4-1.56s-1.15-1.3-1.57-1.72V37.81H4.84v-12A32.57,32.57,0,0,1,2,28.12c.94-.72.78-.62-.47.32-.21-1.15-.62-3-1.25-5.63A4.72,4.72,0,0,0,0,21.88a20,20,0,0,0,7.19-8.44H.94V8.12H6.56A58,58,0,0,0,3.12,2.66L8.12,0a4.69,4.69,0,0,1,.47.62q2.5,3.45,3.6,5.32L8.12,8.12h5.16v5.32q-1.41,3-3,5.62v1.72Z"/><path class="cls-2" d="M48,18.44h5v5.15a24.69,24.69,0,0,0,2.34-4.06L59.06,22V9.38h4.85l.47-2.66H58.59V1.41H77.81V6.72H70.47L70,9.38h7.19V28.12H72V14.53H63.91V28H59.06V23.12A28.77,28.77,0,0,1,42.19,37.81a43.85,43.85,0,0,0-2.66-5q8-2.66,10.94-6.09H48Zm-8.28,8.9a56.84,56.84,0,0,0,3.43-8l4.69,1.71c-.21.53-.52,1.36-.93,2.5-1.05,2.71-1.93,4.8-2.66,6.25A26.15,26.15,0,0,0,39.69,27.34Zm8.9-27h5.16V4.38h3.44v5H53.75V12H58v5.31H40.16V12h1.56V3.28h5V12h1.87ZM65.16,22.66q.15-1.56.15-6.72h5.31c0,2.08-.05,4.22-.15,6.4A20.43,20.43,0,0,1,70,26.88q1.56,1.25,4.22,3.28c1.87,1.46,3.23,2.5,4.06,3.12l-3.9,4.38Q72.81,36.09,68.91,33L68,32q-2.19,2.82-8.91,6.25a59.65,59.65,0,0,0-3.59-5q6.09-2.19,7.65-4.06C64.38,28,65.05,25.78,65.16,22.66Z"/><path class="cls-2" d="M81.72,37.81V1.72h34.69V37.81H110V36.25H88.12v1.56ZM100.94,8h5.94v2.81h2.34v5.47h-2.34v8.13c.2,3.74-1.46,5.67-5,5.78-.84.1-2.45.15-4.85.15a44,44,0,0,0-1.25-5h3.13c1.45.11,2.13-.52,2-1.87V19.06a27.44,27.44,0,0,1-9.38,9.22c-.73-.83-1.87-2.29-3.44-4.37v7.18H110V7.19H88.12v16.4a25.41,25.41,0,0,0,8.6-7.34h-7.5V10.78h11.72Z"/><path class="cls-2" d="M133.59,15.62q3,3.75,3,7.19.16,6.4-5.78,7a13.87,13.87,0,0,1-2.66.32l-.78-3.75V37.5h-5.78V1.88h14.69V7.34Zm-6.25-8.28V24.06h1.57c1.25,0,1.87-.73,1.87-2.18s-.94-3.39-2.81-5.79l2.34-8.75Zm13.75,2.35q.16-2.65.16-8.75h6.56q0,4.53-.15,6.87Q148.91,24.69,158.12,32a41.68,41.68,0,0,0-4.21,5.78,29.19,29.19,0,0,1-8.91-15q-1.73,7.82-9.38,15.31a42.05,42.05,0,0,0-4.06-5.46Q141.25,24.85,141.09,9.69Z"/></g></g></g></g></svg>