<svg xmlns="http://www.w3.org/2000/svg" viewBox="0 0 278.28 38.13"><defs><style>.cls-1{isolation:isolate;}.cls-2{fill:#1373e6;}</style></defs><g id="图层_2" data-name="图层 2"><g id="图层_1-2" data-name="图层 1"><g id="产品运营部门" class="cls-1"><g class="cls-1"><path class="cls-2" d="M12.34,22.66c.52,2.08,1.1,4.06,1.72,5.93a45.18,45.18,0,0,0-3.9,3.6c-.84.73-1.46,1.25-1.88,1.56l-1.4,1.41a13.84,13.84,0,0,1-1.26,1.56L1.88,32.19a7.05,7.05,0,0,0,1.56-4.38V18.28H0V12.34H9.69v13l1.56-1.56ZM7,.16a3.21,3.21,0,0,0,.63.78c2,2.6,3.49,4.74,4.53,6.4L6.41,10.78Q5,8.29,1.56,3.12ZM36.09,15.62v5.94a36.84,36.84,0,0,1-6.71,8.28A53.72,53.72,0,0,0,38,32.19a41.68,41.68,0,0,0-3,5.47,50.75,50.75,0,0,1-11.09-4.22,50.64,50.64,0,0,1-10.79,4.37c-.2-.42-.52-1-.93-1.72S11,34.22,10,32.66a41.61,41.61,0,0,0,8.59-3,29.29,29.29,0,0,1-5-5.94l3.6-2.5H12.66V15.62Zm-.93-6.87h3.12c-.42,1.87-.78,3.65-1.09,5.31a40.66,40.66,0,0,1-4.85.16q-5.15-.15-5-4.22V7H21.41q0,5.16-6.41,8.44-.93-1.1-4.22-4.38,4.85-2.17,4.69-5.93V1.56h18V7.19C33.33,8.33,33.91,8.86,35.16,8.75ZM18.91,21.25a22.71,22.71,0,0,0,5.15,5.31,23,23,0,0,0,5.16-5.31Z"/><path class="cls-2" d="M54.06,23c.63,2.6,1.25,5,1.88,7q-7.81,5.46-9.85,8l-4.21-5a5.53,5.53,0,0,0,1.87-4.22V18.44H40.31v-6.1h9.85V26.25C50.88,25.73,52.19,24.64,54.06,23ZM47.66.16q3.75,4.06,6.09,6.72l-5.47,3.9q-2.51-3.28-5.78-7ZM53,12h9.22V.47h6.56V12H78v6.41H68.75V37.66H62.19V18.44H53Z"/><path class="cls-2" d="M106.41,28.59H80V22.66h26.41Zm-15-14.84h24.37c0,.94-.1,2.76-.31,5.47-.21,4.37-.37,7.5-.47,9.37q0,9.06-8.91,8.75c-.93,0-2.39,0-4.37.16H97.5c-.31-1.88-.78-4-1.41-6.41q2.66.16,7.19.16,4.84.32,4.84-3.59c.11-.94.21-2.29.32-4.07s.15-3,.15-3.9H84.22L85.47.47h6.87L92,4.53h24.85v6.09H91.56Z"/><path class="cls-2" d="M132.34,18.91c.73.73,1.57,1.51,2.5,2.34V1.72h21.41V24.84h-5.94V7.34h-9.84v17.5q1.56-2.81,2-8.9c0-.83.05-2,.16-3.6V9.22h5.78c0,.62-.06,1.67-.16,3.12a24,24,0,0,1-.16,3.28,27,27,0,0,1-.93,7.35h2.65v7.65c0,1.15.37,1.67,1.1,1.57s1.3-.47,1.4-1.41a26.61,26.61,0,0,0,.47-4.69q3.91,1.41,5.31,1.88-.47,2.34-.93,5.31c-.52,2.71-2.35,4-5.47,3.91h-2.66q-4.68,0-4.68-5V29.53Q142,33.28,135.31,38c-.41-.52-1.2-1.46-2.34-2.81a23.83,23.83,0,0,0-1.56-1.88q6.87-4.22,8.9-8.12h-5l-2,1.87c-.31-.31-.78-.83-1.4-1.56s-1.15-1.3-1.57-1.72V37.81h-5.47v-12A32.57,32.57,0,0,1,122,28.12c.94-.72.78-.62-.47.32-.21-1.15-.62-3-1.25-5.63a4.72,4.72,0,0,0-.31-.93,20,20,0,0,0,7.19-8.44h-6.25V8.12h5.62a58,58,0,0,0-3.44-5.46l5-2.66a4.69,4.69,0,0,1,.47.62q2.5,3.45,3.6,5.32l-4.07,2.18h5.16v5.32q-1.41,3-3,5.62v1.72Z"/><path class="cls-2" d="M161.25,16.09V6.88h5.16l-3-5L170,.47l3.12,5.15-4.68,1.26h8.75l-2.81-5.32,6.4-1.25,2.81,5-5.78,1.57h6.1L187.5.62l6.72,1.1-3.28,5.16h5.94v9.21h-4.07V26.41c.63.21,1.57.47,2.81.78,1,.31,1.83.57,2.35.78a29.26,29.26,0,0,1-.94,5.31q-1.09,3.6-5.94,3.6h-7.5q-5.62.15-5.47-5v-.32q-4.05,3.75-14.68,6.56a.49.49,0,0,0-.16-.31,50,50,0,0,0-3.12-5.15q15.47-2.65,15.31-8a18.23,18.23,0,0,0,.47-4.07h6.25a21.12,21.12,0,0,1-.63,4.22v.32h2.66v5.31c0,1,.57,1.56,1.72,1.56h3.59c1.35,0,2.08-.57,2.19-1.72a1.77,1.77,0,0,0,.16-.78,4.63,4.63,0,0,0,.15-.78h-5.47V19.38h-15v9.84h-6.25V16.09Zm6.25-3.9v2h23.12v-2Z"/><path class="cls-2" d="M215.62.31h6.72V6.72h13.91V28.44h-6.56V26.25h-7.35V38h-6.72V26.25h-7.18v2.19h-6.72V6.72h13.9Zm-7.18,12.5v7.35h7.18V12.81Zm21.25,0h-7.35v7.35h7.35Z"/><path class="cls-2" d="M243.91,12.19l5.93,1.87V9.53h6.88V28.12c-.11,1.78.73,2.61,2.5,2.5h2.19a2.66,2.66,0,0,0,2.81-2.5c.21-1.35.41-3.07.62-5.15a43.64,43.64,0,0,0,4.38,1.56c.94.31,1.66.58,2.19.78A61,61,0,0,1,270.16,32q-1.1,4.69-7.5,4.53h-5.47q-7.5.16-7.35-7.18V14.53Q247.5,23,245.47,29.06l-5.94-2.34q.15-.63.63-2.19Q242.65,16.56,243.91,12.19ZM255.47.31Q260.15,2.82,266.72,7l-4.06,5.47Q256.09,8,251.56,5.31Zm15.62,11.25q2.82,4.23,7.19,11.56l-5.78,3.29-2.34-4.07-4.69-7.81Z"/></g></g></g></g></svg>